<svg id="Layer_1" data-name="Layer 1" xmlns="http://www.w3.org/2000/svg" width="531.3" height="537.16" viewBox="0 0 531.3 537.16"><defs><style>.cls-1{fill:none;}.cls-2{fill:#651128;}.cls-3{fill:#ec1344;}.cls-4{fill:#590a50;}.cls-5{fill:#9b1083;}</style></defs><title>ptw</title><path class="cls-1" d="M427.53,270.7a24.42,24.42,0,1,0,24,24.49A24.28,24.28,0,0,0,427.53,270.7Z" transform="translate(-234.35 -231.42)"/><path class="cls-2" d="M627.68,303.26c0-34.73-29.3-60.82-64.08-66.61a399.7,399.7,0,0,0-66.76-5.23,365.92,365.92,0,0,0-61.24,5.23c-54.23,9.58-64.08,29.63-64.08,66.61v48.84H499.67v16.28h128ZM427.53,319.54a24.42,24.42,0,1,1,24-24.35A24.19,24.19,0,0,1,427.53,319.54Z" transform="translate(-234.35 -231.42)"/><path class="cls-3" d="M499.67,368.39H323.43c-37.24,0-69.86,22.39-80.06,65-11.77,48.81-12.29,79.27,0,130.24,9.11,37.94,30.86,65,68.11,65h44.06V570c0-42.3,36.6-79.61,80.06-79.61h128c35.63,0,64.08-29.34,64.08-65.12V368.39Z" transform="translate(-234.35 -231.42)"/><path class="cls-1" d="M571.67,726.25a24.42,24.42,0,1,0-24-24.49A24.28,24.28,0,0,0,571.67,726.25Z" transform="translate(-234.35 -231.42)"/><path class="cls-4" d="M371.52,693.69c0,34.73,30.2,55.16,64.08,65.12,40.57,11.93,79.47,14.08,128,0,32.26-9.34,64.08-28.14,64.08-65.12V644.85h-128V628.57H371.52Zm200.14-16.28a24.42,24.42,0,1,1-24,24.35A24.19,24.19,0,0,1,571.67,677.41Z" transform="translate(-234.35 -231.42)"/><path class="cls-5" d="M755.83,433.36c-9.2-37.08-26.78-65-64.08-65H643.66v56.91c0,44.12-37.4,81.25-80.06,81.25h-128c-35.06,0-64.08,30-64.08,65.12v56.91H691.75c37.24,0,51.12-26,64.08-65C769.21,523.46,768.64,484.85,755.83,433.36Z" transform="translate(-234.35 -231.42)"/></svg>