<svg id="Layer_1" data-name="Layer 1" xmlns="http://www.w3.org/2000/svg" width="871.39" height="137.59" viewBox="0 0 871.39 137.59"><defs><style>.cls-1{fill:#fff;}</style></defs><title>ptw1w</title><path class="cls-1" d="M101.59,464.5c-3.4,0-5.3,2.81-4.24,6.27a9.1,9.1,0,0,0,8.07,6.24c3.39,0,5.31-2.79,4.25-6.24S105,464.5,101.59,464.5Z" transform="translate(-67.1 -454.43)"/><path class="cls-1" d="M174.18,581.18c3.4,0,5.3-2.81,4.24-6.27a9.1,9.1,0,0,0-8.07-6.24c-3.39,0-5.31,2.79-4.25,6.24S170.79,581.18,174.18,581.18Z" transform="translate(-67.1 -454.43)"/><path class="cls-1" d="M120.86,520.77h32.79c9.13,0,14.11-7.51,11.31-16.68l-4.46-14.58-5.1-16.68c-2.72-8.9-12.27-15.58-21.63-17.06a109.82,109.82,0,0,0-17.51-1.34A86.54,86.54,0,0,0,101,455.77c-13.14,2.45-14.09,7.59-11.2,17.06l3.82,12.51h32.82l1.27,4.17H82.58c-9.54,0-16.14,5.73-15.42,16.64.81,12.5,3.06,20.31,10.2,33.36,5.3,9.72,13,16.64,22.53,16.64h11.29l-4.58-15C103.28,530.33,109.73,520.77,120.86,520.77ZM105.42,477a9.1,9.1,0,0,1-8.07-6.24c-1.06-3.46.84-6.27,4.24-6.27s7,2.81,8.08,6.27S108.81,477,105.42,477Z" transform="translate(-67.1 -454.43)"/><path class="cls-1" d="M164.6,489.52l4.46,14.58c3.45,11.3-3.22,20.81-14.14,20.81H122.13c-9,0-14.06,7.69-11.31,16.68l4.46,14.58,5.1,16.68c2.72,8.9,12.05,14.13,21.51,16.68,11.32,3.06,21.46,3.61,32.79,0,7.53-2.39,14.21-7.21,11.31-16.68l-3.82-12.51H149.37l-1.27-4.17H185l-20.38-66.64Zm5.76,79.15a9.1,9.1,0,0,1,8.07,6.24c1.06,3.46-.84,6.27-4.24,6.27s-7-2.81-8.08-6.27S167,568.67,170.36,568.67Z" transform="translate(-67.1 -454.43)"/><path class="cls-1" d="M248.73,518.91l-52.35-29.4H164.66L185,556.16h11.34l52.35-29.4A4.5,4.5,0,0,0,248.73,518.91Z" transform="translate(-67.1 -454.43)"/><path class="cls-1" d="M274.92,485.2a2.67,2.67,0,0,1,.6-1.83,2.27,2.27,0,0,1,1.8-.68h34.89a23.75,23.75,0,0,1,7.1,1,24.19,24.19,0,0,1,6.12,2.87,25,25,0,0,1,5,4.37,28.15,28.15,0,0,1,3.79,5.49,27.78,27.78,0,0,1,2.37,6.2,26.88,26.88,0,0,1-1,16.19,26.39,26.39,0,0,1-5.05,8.35,25.73,25.73,0,0,1-7.86,5.92,23.13,23.13,0,0,1-10.16,2.32H296.05v26q0,2.35-2.51,2.35H277.32a2.56,2.56,0,0,1-1.75-.57,2.24,2.24,0,0,1-.66-1.77ZM316,509.12a9.85,9.85,0,0,0-.57-3.28,9.1,9.1,0,0,0-1.67-2.92,8.86,8.86,0,0,0-2.65-2.1,7.44,7.44,0,0,0-3.52-.82H296.05v18.24h11.57a7.83,7.83,0,0,0,3.55-.79,8.24,8.24,0,0,0,2.65-2,9,9,0,0,0,1.64-2.89A10.17,10.17,0,0,0,316,509.12Z" transform="translate(-67.1 -454.43)"/><path class="cls-1" d="M379,512.61l13.19-28.23a7.21,7.21,0,0,1,.55-1,1.66,1.66,0,0,1,.44-.44,1.11,1.11,0,0,1,.46-.16,2.82,2.82,0,0,0,.57-.14h21a.85.85,0,0,1,.63.25.79.79,0,0,1,.25.57,2.11,2.11,0,0,1-.76,1.37l-25.88,45.81V561.2a2.24,2.24,0,0,1-2.5,2.57H370.63a2.12,2.12,0,0,1-1.69-.68,2.76,2.76,0,0,1-.6-1.88V530.57l-25.83-45.7a2,2,0,0,1-.71-1.37.83.83,0,0,1,.22-.57.76.76,0,0,1,.6-.25h21a4.2,4.2,0,0,0,.6.14,1.1,1.1,0,0,1,.44.16,1.69,1.69,0,0,1,.44.44q.22.3.6,1Z" transform="translate(-67.1 -454.43)"/><path class="cls-1" d="M438.75,485.08a2.21,2.21,0,0,1,.74-1.74,2.66,2.66,0,0,1,1.83-.65h58.75a2.76,2.76,0,0,1,1.75.6,2.45,2.45,0,0,1,.87,1.8v13.56a3.06,3.06,0,0,1-.68,1.88,2.29,2.29,0,0,1-1.94.9H481.23V561.2a2.6,2.6,0,0,1-.71,1.78,2.37,2.37,0,0,1-1.85.79h-16a2.56,2.56,0,0,1-1.74-.74,2.37,2.37,0,0,1-.82-1.83V501.42H441.31a2.54,2.54,0,0,1-1.83-.71,2.74,2.74,0,0,1-.74-2.07Z" transform="translate(-67.1 -454.43)"/><path class="cls-1" d="M516.11,485.09a2.76,2.76,0,0,1,.68-1.67,2.08,2.08,0,0,1,1.67-.74h16.22a2.78,2.78,0,0,1,1.69.68,2.11,2.11,0,0,1,.87,1.72V511h27.14V485.1a2.37,2.37,0,0,1,.68-1.69,2.34,2.34,0,0,1,1.77-.71h16a3.35,3.35,0,0,1,1.91.55,2,2,0,0,1,.82,1.75v76.39a2.23,2.23,0,0,1-.71,1.8,2.76,2.76,0,0,1-1.85.6H566.83a2.57,2.57,0,0,1-1.77-.6,2.28,2.28,0,0,1-.68-1.8v-31H537.24v31a2.2,2.2,0,0,1-.74,1.77,3,3,0,0,1-2,.63H518.46q-2.29,0-2.35-2.13Z" transform="translate(-67.1 -454.43)"/><path class="cls-1" d="M603.36,485.2a2.6,2.6,0,0,1,.63-1.83,2.28,2.28,0,0,1,1.77-.68h54.17a2.41,2.41,0,0,1,1.86.71,2.7,2.7,0,0,1,.65,1.91v13.5a2.85,2.85,0,0,1-.65,1.77,2.27,2.27,0,0,1-1.91.84H624.49V515h27.3a2.87,2.87,0,0,1,1.72.49,1.88,1.88,0,0,1,.68,1.64v11.79a2.27,2.27,0,0,1-.6,1.47,2.16,2.16,0,0,1-1.75.71H624.49v14h36.69a2.19,2.19,0,0,1,2.46,2.5v13.72a1.35,1.35,0,0,1-.44,1q-.22,1.52-2.24,1.52H605.76a2.55,2.55,0,0,1-1.74-.57,2.24,2.24,0,0,1-.65-1.77Z" transform="translate(-67.1 -454.43)"/><path class="cls-1" d="M714.36,562.62q-.55-.93-1-1.91t-.87-2q-7-18.56-14-36.8t-14-36.8a1.38,1.38,0,0,0-.08-.49,1.24,1.24,0,0,1-.08-.44q0-1.53,2-1.53h17.58a2.83,2.83,0,0,1,2.84,2.08l16.71,49.74,15.45-49.74a2.93,2.93,0,0,1,3-2.08h17.75a2.66,2.66,0,0,1,1.77.46,1.57,1.57,0,0,1,.52,1.23,2.23,2.23,0,0,1-.05.6v.16L752.09,513l7.32,21.46,17.69-49.69a2.94,2.94,0,0,1,3-2.08h17.2a2.66,2.66,0,0,1,1.77.46,1.57,1.57,0,0,1,.52,1.23,2.23,2.23,0,0,1-.05.6v.16q-3.71,9.61-7.59,19.17t-7.78,19.11q-3.9,9.56-7.75,19.14t-7.51,19.14a3.8,3.8,0,0,1-1,1.34,2.58,2.58,0,0,1-1.86.74H752.69a3,3,0,0,1-1.83-.46,2.56,2.56,0,0,1-.9-1.23l-8.63-22.71q-1.86,5-3.66,9.75t-3.6,9.75q-.27.77-.63,1.61a9.45,9.45,0,0,1-.85,1.58,5.24,5.24,0,0,1-1.12,1.23,2.28,2.28,0,0,1-1.45.49H716.65A2.28,2.28,0,0,1,714.36,562.62Z" transform="translate(-67.1 -454.43)"/><path class="cls-1" d="M822,484.82a1.61,1.61,0,0,1,.36-.71,4.06,4.06,0,0,1,1.66-1.23,2.58,2.58,0,0,1,.93-.19h14a2.32,2.32,0,0,1,1.58.57,7,7,0,0,1,1,1l1.37,3.11,28.67,73.93a1.61,1.61,0,0,1-.16,1.77,2.66,2.66,0,0,1-2.08.68H853.59a3.42,3.42,0,0,1-1.94-.46,3,3,0,0,1-1.07-1.56q-1.09-2.78-2.13-5.54t-2.08-5.54h-29q-1,2.78-2.1,5.54t-2.1,5.54a2.73,2.73,0,0,1-2.78,2H794.29a2.66,2.66,0,0,1-1.72-.55,1.29,1.29,0,0,1-.25-1.64Zm9.94,23.37q-1,2.78-2.1,6t-2.1,6.5q-1,3.28-2.1,6.47t-2.1,6h16.76Z" transform="translate(-67.1 -454.43)"/><path class="cls-1" d="M901.39,512.61l13.19-28.23a7.21,7.21,0,0,1,.55-1,1.66,1.66,0,0,1,.44-.44,1.11,1.11,0,0,1,.46-.16,2.81,2.81,0,0,0,.57-.14h21a.85.85,0,0,1,.63.25.78.78,0,0,1,.25.57,2.11,2.11,0,0,1-.76,1.37l-25.88,45.81V561.2a2.24,2.24,0,0,1-2.5,2.57H893a2.12,2.12,0,0,1-1.69-.68,2.76,2.76,0,0,1-.6-1.88V530.57l-25.83-45.7a2,2,0,0,1-.71-1.37.83.83,0,0,1,.22-.57.76.76,0,0,1,.6-.25h21a4.16,4.16,0,0,0,.6.14,1.09,1.09,0,0,1,.44.16,1.69,1.69,0,0,1,.44.44q.22.3.6,1Z" transform="translate(-67.1 -454.43)"/></svg>